<mxfile host="app.diagrams.net" modified="2022-04-14T03:03:15.456Z" agent="5.0 (Windows NT 10.0; Win64; x64) AppleWebKit/537.36 (KHTML, like Gecko) Chrome/100.0.4896.88 Safari/537.36" etag="rpNgUIStuQNIr6uV2l6F" version="17.4.1" type="github" pages="2">
  <diagram id="R2lEEEUBdFMjLlhIrx00" name="Page-1">
    <mxGraphModel dx="1278" dy="539" grid="1" gridSize="10" guides="1" tooltips="1" connect="1" arrows="1" fold="1" page="1" pageScale="1" pageWidth="850" pageHeight="1100" math="0" shadow="0" extFonts="Permanent Marker^https://fonts.googleapis.com/css?family=Permanent+Marker">
      <root>
        <mxCell id="0" />
        <mxCell id="1" parent="0" />
        <mxCell id="USe1o16NmA6yLf-kkS8X-1" value="karyawan" style="shape=table;startSize=30;container=1;collapsible=1;childLayout=tableLayout;fixedRows=1;rowLines=0;fontStyle=1;align=center;resizeLast=1;" parent="1" vertex="1">
          <mxGeometry x="370" y="260" width="180" height="100" as="geometry" />
        </mxCell>
        <mxCell id="USe1o16NmA6yLf-kkS8X-2" value="" style="shape=tableRow;horizontal=0;startSize=0;swimlaneHead=0;swimlaneBody=0;fillColor=none;collapsible=0;dropTarget=0;points=[[0,0.5],[1,0.5]];portConstraint=eastwest;top=0;left=0;right=0;bottom=1;" parent="USe1o16NmA6yLf-kkS8X-1" vertex="1">
          <mxGeometry y="30" width="180" height="30" as="geometry" />
        </mxCell>
        <mxCell id="USe1o16NmA6yLf-kkS8X-3" value="PK" style="shape=partialRectangle;connectable=0;fillColor=none;top=0;left=0;bottom=0;right=0;fontStyle=1;overflow=hidden;" parent="USe1o16NmA6yLf-kkS8X-2" vertex="1">
          <mxGeometry width="30" height="30" as="geometry">
            <mxRectangle width="30" height="30" as="alternateBounds" />
          </mxGeometry>
        </mxCell>
        <mxCell id="USe1o16NmA6yLf-kkS8X-4" value="ID_karyawan INT(3)" style="shape=partialRectangle;connectable=0;fillColor=none;top=0;left=0;bottom=0;right=0;align=left;spacingLeft=6;fontStyle=5;overflow=hidden;" parent="USe1o16NmA6yLf-kkS8X-2" vertex="1">
          <mxGeometry x="30" width="150" height="30" as="geometry">
            <mxRectangle width="150" height="30" as="alternateBounds" />
          </mxGeometry>
        </mxCell>
        <mxCell id="USe1o16NmA6yLf-kkS8X-5" value="" style="shape=tableRow;horizontal=0;startSize=0;swimlaneHead=0;swimlaneBody=0;fillColor=none;collapsible=0;dropTarget=0;points=[[0,0.5],[1,0.5]];portConstraint=eastwest;top=0;left=0;right=0;bottom=0;" parent="USe1o16NmA6yLf-kkS8X-1" vertex="1">
          <mxGeometry y="60" width="180" height="30" as="geometry" />
        </mxCell>
        <mxCell id="USe1o16NmA6yLf-kkS8X-6" value="" style="shape=partialRectangle;connectable=0;fillColor=none;top=0;left=0;bottom=0;right=0;editable=1;overflow=hidden;" parent="USe1o16NmA6yLf-kkS8X-5" vertex="1">
          <mxGeometry width="30" height="30" as="geometry">
            <mxRectangle width="30" height="30" as="alternateBounds" />
          </mxGeometry>
        </mxCell>
        <mxCell id="USe1o16NmA6yLf-kkS8X-7" value="Nama VARCHAR(50)" style="shape=partialRectangle;connectable=0;fillColor=none;top=0;left=0;bottom=0;right=0;align=left;spacingLeft=6;overflow=hidden;" parent="USe1o16NmA6yLf-kkS8X-5" vertex="1">
          <mxGeometry x="30" width="150" height="30" as="geometry">
            <mxRectangle width="150" height="30" as="alternateBounds" />
          </mxGeometry>
        </mxCell>
        <mxCell id="hA6Ob9VuYaXyNVDvQv3Z-1" value="histori_gaji" style="shape=table;startSize=30;container=1;collapsible=1;childLayout=tableLayout;fixedRows=1;rowLines=0;fontStyle=1;align=center;resizeLast=1;" vertex="1" parent="1">
          <mxGeometry x="80" y="200" width="210" height="130" as="geometry" />
        </mxCell>
        <mxCell id="hA6Ob9VuYaXyNVDvQv3Z-2" value="" style="shape=tableRow;horizontal=0;startSize=0;swimlaneHead=0;swimlaneBody=0;fillColor=none;collapsible=0;dropTarget=0;points=[[0,0.5],[1,0.5]];portConstraint=eastwest;top=0;left=0;right=0;bottom=1;" vertex="1" parent="hA6Ob9VuYaXyNVDvQv3Z-1">
          <mxGeometry y="30" width="210" height="30" as="geometry" />
        </mxCell>
        <mxCell id="hA6Ob9VuYaXyNVDvQv3Z-3" value="PK" style="shape=partialRectangle;connectable=0;fillColor=none;top=0;left=0;bottom=0;right=0;fontStyle=1;overflow=hidden;" vertex="1" parent="hA6Ob9VuYaXyNVDvQv3Z-2">
          <mxGeometry width="30" height="30" as="geometry">
            <mxRectangle width="30" height="30" as="alternateBounds" />
          </mxGeometry>
        </mxCell>
        <mxCell id="hA6Ob9VuYaXyNVDvQv3Z-4" value="ID_karyawan INT(3)" style="shape=partialRectangle;connectable=0;fillColor=none;top=0;left=0;bottom=0;right=0;align=left;spacingLeft=6;fontStyle=5;overflow=hidden;" vertex="1" parent="hA6Ob9VuYaXyNVDvQv3Z-2">
          <mxGeometry x="30" width="180" height="30" as="geometry">
            <mxRectangle width="180" height="30" as="alternateBounds" />
          </mxGeometry>
        </mxCell>
        <mxCell id="hA6Ob9VuYaXyNVDvQv3Z-14" value="" style="shape=tableRow;horizontal=0;startSize=0;swimlaneHead=0;swimlaneBody=0;fillColor=none;collapsible=0;dropTarget=0;points=[[0,0.5],[1,0.5]];portConstraint=eastwest;top=0;left=0;right=0;bottom=1;" vertex="1" parent="hA6Ob9VuYaXyNVDvQv3Z-1">
          <mxGeometry y="60" width="210" height="30" as="geometry" />
        </mxCell>
        <mxCell id="hA6Ob9VuYaXyNVDvQv3Z-15" value="PK" style="shape=partialRectangle;connectable=0;fillColor=none;top=0;left=0;bottom=0;right=0;fontStyle=1;overflow=hidden;" vertex="1" parent="hA6Ob9VuYaXyNVDvQv3Z-14">
          <mxGeometry width="30" height="30" as="geometry">
            <mxRectangle width="30" height="30" as="alternateBounds" />
          </mxGeometry>
        </mxCell>
        <mxCell id="hA6Ob9VuYaXyNVDvQv3Z-16" value="tanggal_gaji DATE" style="shape=partialRectangle;connectable=0;fillColor=none;top=0;left=0;bottom=0;right=0;align=left;spacingLeft=6;fontStyle=5;overflow=hidden;" vertex="1" parent="hA6Ob9VuYaXyNVDvQv3Z-14">
          <mxGeometry x="30" width="180" height="30" as="geometry">
            <mxRectangle width="180" height="30" as="alternateBounds" />
          </mxGeometry>
        </mxCell>
        <mxCell id="hA6Ob9VuYaXyNVDvQv3Z-5" value="" style="shape=tableRow;horizontal=0;startSize=0;swimlaneHead=0;swimlaneBody=0;fillColor=none;collapsible=0;dropTarget=0;points=[[0,0.5],[1,0.5]];portConstraint=eastwest;top=0;left=0;right=0;bottom=0;" vertex="1" parent="hA6Ob9VuYaXyNVDvQv3Z-1">
          <mxGeometry y="90" width="210" height="30" as="geometry" />
        </mxCell>
        <mxCell id="hA6Ob9VuYaXyNVDvQv3Z-6" value="" style="shape=partialRectangle;connectable=0;fillColor=none;top=0;left=0;bottom=0;right=0;editable=1;overflow=hidden;" vertex="1" parent="hA6Ob9VuYaXyNVDvQv3Z-5">
          <mxGeometry width="30" height="30" as="geometry">
            <mxRectangle width="30" height="30" as="alternateBounds" />
          </mxGeometry>
        </mxCell>
        <mxCell id="hA6Ob9VuYaXyNVDvQv3Z-7" value="gaji_bulanan VARCHAR(20)" style="shape=partialRectangle;connectable=0;fillColor=none;top=0;left=0;bottom=0;right=0;align=left;spacingLeft=6;overflow=hidden;" vertex="1" parent="hA6Ob9VuYaXyNVDvQv3Z-5">
          <mxGeometry x="30" width="180" height="30" as="geometry">
            <mxRectangle width="180" height="30" as="alternateBounds" />
          </mxGeometry>
        </mxCell>
        <mxCell id="hA6Ob9VuYaXyNVDvQv3Z-17" value="" style="edgeStyle=entityRelationEdgeStyle;fontSize=12;html=1;endArrow=ERoneToMany;startArrow=ERmandOne;rounded=0;exitX=1;exitY=0.5;exitDx=0;exitDy=0;entryX=0;entryY=0.5;entryDx=0;entryDy=0;" edge="1" parent="1" source="hA6Ob9VuYaXyNVDvQv3Z-2" target="USe1o16NmA6yLf-kkS8X-2">
          <mxGeometry width="100" height="100" relative="1" as="geometry">
            <mxPoint x="370" y="330" as="sourcePoint" />
            <mxPoint x="470" y="230" as="targetPoint" />
          </mxGeometry>
        </mxCell>
        <mxCell id="hA6Ob9VuYaXyNVDvQv3Z-31" value="histori_tempat_tinggal" style="shape=table;startSize=30;container=1;collapsible=1;childLayout=tableLayout;fixedRows=1;rowLines=0;fontStyle=1;align=center;resizeLast=1;" vertex="1" parent="1">
          <mxGeometry x="630" y="380" width="180" height="130" as="geometry" />
        </mxCell>
        <mxCell id="hA6Ob9VuYaXyNVDvQv3Z-32" value="" style="shape=tableRow;horizontal=0;startSize=0;swimlaneHead=0;swimlaneBody=0;fillColor=none;collapsible=0;dropTarget=0;points=[[0,0.5],[1,0.5]];portConstraint=eastwest;top=0;left=0;right=0;bottom=1;" vertex="1" parent="hA6Ob9VuYaXyNVDvQv3Z-31">
          <mxGeometry y="30" width="180" height="30" as="geometry" />
        </mxCell>
        <mxCell id="hA6Ob9VuYaXyNVDvQv3Z-33" value="PK" style="shape=partialRectangle;connectable=0;fillColor=none;top=0;left=0;bottom=0;right=0;fontStyle=1;overflow=hidden;" vertex="1" parent="hA6Ob9VuYaXyNVDvQv3Z-32">
          <mxGeometry width="30" height="30" as="geometry">
            <mxRectangle width="30" height="30" as="alternateBounds" />
          </mxGeometry>
        </mxCell>
        <mxCell id="hA6Ob9VuYaXyNVDvQv3Z-34" value="ID_karyawan INT(3)" style="shape=partialRectangle;connectable=0;fillColor=none;top=0;left=0;bottom=0;right=0;align=left;spacingLeft=6;fontStyle=5;overflow=hidden;" vertex="1" parent="hA6Ob9VuYaXyNVDvQv3Z-32">
          <mxGeometry x="30" width="150" height="30" as="geometry">
            <mxRectangle width="150" height="30" as="alternateBounds" />
          </mxGeometry>
        </mxCell>
        <mxCell id="hA6Ob9VuYaXyNVDvQv3Z-60" value="" style="shape=tableRow;horizontal=0;startSize=0;swimlaneHead=0;swimlaneBody=0;fillColor=none;collapsible=0;dropTarget=0;points=[[0,0.5],[1,0.5]];portConstraint=eastwest;top=0;left=0;right=0;bottom=1;" vertex="1" parent="hA6Ob9VuYaXyNVDvQv3Z-31">
          <mxGeometry y="60" width="180" height="30" as="geometry" />
        </mxCell>
        <mxCell id="hA6Ob9VuYaXyNVDvQv3Z-61" value="PK" style="shape=partialRectangle;connectable=0;fillColor=none;top=0;left=0;bottom=0;right=0;fontStyle=1;overflow=hidden;" vertex="1" parent="hA6Ob9VuYaXyNVDvQv3Z-60">
          <mxGeometry width="30" height="30" as="geometry">
            <mxRectangle width="30" height="30" as="alternateBounds" />
          </mxGeometry>
        </mxCell>
        <mxCell id="hA6Ob9VuYaXyNVDvQv3Z-62" value="tanggal DATE" style="shape=partialRectangle;connectable=0;fillColor=none;top=0;left=0;bottom=0;right=0;align=left;spacingLeft=6;fontStyle=5;overflow=hidden;" vertex="1" parent="hA6Ob9VuYaXyNVDvQv3Z-60">
          <mxGeometry x="30" width="150" height="30" as="geometry">
            <mxRectangle width="150" height="30" as="alternateBounds" />
          </mxGeometry>
        </mxCell>
        <mxCell id="hA6Ob9VuYaXyNVDvQv3Z-38" value="" style="shape=tableRow;horizontal=0;startSize=0;swimlaneHead=0;swimlaneBody=0;fillColor=none;collapsible=0;dropTarget=0;points=[[0,0.5],[1,0.5]];portConstraint=eastwest;top=0;left=0;right=0;bottom=0;" vertex="1" parent="hA6Ob9VuYaXyNVDvQv3Z-31">
          <mxGeometry y="90" width="180" height="30" as="geometry" />
        </mxCell>
        <mxCell id="hA6Ob9VuYaXyNVDvQv3Z-39" value="" style="shape=partialRectangle;connectable=0;fillColor=none;top=0;left=0;bottom=0;right=0;editable=1;overflow=hidden;" vertex="1" parent="hA6Ob9VuYaXyNVDvQv3Z-38">
          <mxGeometry width="30" height="30" as="geometry">
            <mxRectangle width="30" height="30" as="alternateBounds" />
          </mxGeometry>
        </mxCell>
        <mxCell id="hA6Ob9VuYaXyNVDvQv3Z-40" value="alamat VARCHAR(100)" style="shape=partialRectangle;connectable=0;fillColor=none;top=0;left=0;bottom=0;right=0;align=left;spacingLeft=6;overflow=hidden;" vertex="1" parent="hA6Ob9VuYaXyNVDvQv3Z-38">
          <mxGeometry x="30" width="150" height="30" as="geometry">
            <mxRectangle width="150" height="30" as="alternateBounds" />
          </mxGeometry>
        </mxCell>
        <mxCell id="hA6Ob9VuYaXyNVDvQv3Z-44" value="histori_jabatan" style="shape=table;startSize=30;container=1;collapsible=1;childLayout=tableLayout;fixedRows=1;rowLines=0;fontStyle=1;align=center;resizeLast=1;" vertex="1" parent="1">
          <mxGeometry x="630" y="200" width="180" height="130" as="geometry" />
        </mxCell>
        <mxCell id="hA6Ob9VuYaXyNVDvQv3Z-45" value="" style="shape=tableRow;horizontal=0;startSize=0;swimlaneHead=0;swimlaneBody=0;fillColor=none;collapsible=0;dropTarget=0;points=[[0,0.5],[1,0.5]];portConstraint=eastwest;top=0;left=0;right=0;bottom=1;" vertex="1" parent="hA6Ob9VuYaXyNVDvQv3Z-44">
          <mxGeometry y="30" width="180" height="30" as="geometry" />
        </mxCell>
        <mxCell id="hA6Ob9VuYaXyNVDvQv3Z-46" value="PK" style="shape=partialRectangle;connectable=0;fillColor=none;top=0;left=0;bottom=0;right=0;fontStyle=1;overflow=hidden;" vertex="1" parent="hA6Ob9VuYaXyNVDvQv3Z-45">
          <mxGeometry width="30" height="30" as="geometry">
            <mxRectangle width="30" height="30" as="alternateBounds" />
          </mxGeometry>
        </mxCell>
        <mxCell id="hA6Ob9VuYaXyNVDvQv3Z-47" value="ID_karyawan INT(3)" style="shape=partialRectangle;connectable=0;fillColor=none;top=0;left=0;bottom=0;right=0;align=left;spacingLeft=6;fontStyle=5;overflow=hidden;" vertex="1" parent="hA6Ob9VuYaXyNVDvQv3Z-45">
          <mxGeometry x="30" width="150" height="30" as="geometry">
            <mxRectangle width="150" height="30" as="alternateBounds" />
          </mxGeometry>
        </mxCell>
        <mxCell id="hA6Ob9VuYaXyNVDvQv3Z-57" value="" style="shape=tableRow;horizontal=0;startSize=0;swimlaneHead=0;swimlaneBody=0;fillColor=none;collapsible=0;dropTarget=0;points=[[0,0.5],[1,0.5]];portConstraint=eastwest;top=0;left=0;right=0;bottom=1;" vertex="1" parent="hA6Ob9VuYaXyNVDvQv3Z-44">
          <mxGeometry y="60" width="180" height="30" as="geometry" />
        </mxCell>
        <mxCell id="hA6Ob9VuYaXyNVDvQv3Z-58" value="PK" style="shape=partialRectangle;connectable=0;fillColor=none;top=0;left=0;bottom=0;right=0;fontStyle=1;overflow=hidden;" vertex="1" parent="hA6Ob9VuYaXyNVDvQv3Z-57">
          <mxGeometry width="30" height="30" as="geometry">
            <mxRectangle width="30" height="30" as="alternateBounds" />
          </mxGeometry>
        </mxCell>
        <mxCell id="hA6Ob9VuYaXyNVDvQv3Z-59" value="tanggal DATE" style="shape=partialRectangle;connectable=0;fillColor=none;top=0;left=0;bottom=0;right=0;align=left;spacingLeft=6;fontStyle=5;overflow=hidden;" vertex="1" parent="hA6Ob9VuYaXyNVDvQv3Z-57">
          <mxGeometry x="30" width="150" height="30" as="geometry">
            <mxRectangle width="150" height="30" as="alternateBounds" />
          </mxGeometry>
        </mxCell>
        <mxCell id="hA6Ob9VuYaXyNVDvQv3Z-51" value="" style="shape=tableRow;horizontal=0;startSize=0;swimlaneHead=0;swimlaneBody=0;fillColor=none;collapsible=0;dropTarget=0;points=[[0,0.5],[1,0.5]];portConstraint=eastwest;top=0;left=0;right=0;bottom=0;" vertex="1" parent="hA6Ob9VuYaXyNVDvQv3Z-44">
          <mxGeometry y="90" width="180" height="30" as="geometry" />
        </mxCell>
        <mxCell id="hA6Ob9VuYaXyNVDvQv3Z-52" value="" style="shape=partialRectangle;connectable=0;fillColor=none;top=0;left=0;bottom=0;right=0;editable=1;overflow=hidden;" vertex="1" parent="hA6Ob9VuYaXyNVDvQv3Z-51">
          <mxGeometry width="30" height="30" as="geometry">
            <mxRectangle width="30" height="30" as="alternateBounds" />
          </mxGeometry>
        </mxCell>
        <mxCell id="hA6Ob9VuYaXyNVDvQv3Z-53" value="jabatan VARCHAR(20)" style="shape=partialRectangle;connectable=0;fillColor=none;top=0;left=0;bottom=0;right=0;align=left;spacingLeft=6;overflow=hidden;" vertex="1" parent="hA6Ob9VuYaXyNVDvQv3Z-51">
          <mxGeometry x="30" width="150" height="30" as="geometry">
            <mxRectangle width="150" height="30" as="alternateBounds" />
          </mxGeometry>
        </mxCell>
        <mxCell id="hA6Ob9VuYaXyNVDvQv3Z-63" value="" style="edgeStyle=entityRelationEdgeStyle;fontSize=12;html=1;endArrow=ERoneToMany;startArrow=ERmandOne;rounded=0;exitX=0;exitY=0.5;exitDx=0;exitDy=0;entryX=1.004;entryY=0.74;entryDx=0;entryDy=0;entryPerimeter=0;" edge="1" parent="1" source="hA6Ob9VuYaXyNVDvQv3Z-32" target="USe1o16NmA6yLf-kkS8X-5">
          <mxGeometry width="100" height="100" relative="1" as="geometry">
            <mxPoint x="460" y="400" as="sourcePoint" />
            <mxPoint x="540" y="460" as="targetPoint" />
          </mxGeometry>
        </mxCell>
        <mxCell id="hA6Ob9VuYaXyNVDvQv3Z-64" value="" style="edgeStyle=entityRelationEdgeStyle;fontSize=12;html=1;endArrow=ERoneToMany;startArrow=ERmandOne;rounded=0;exitX=0;exitY=0.5;exitDx=0;exitDy=0;entryX=1;entryY=0.5;entryDx=0;entryDy=0;" edge="1" parent="1" source="hA6Ob9VuYaXyNVDvQv3Z-45" target="USe1o16NmA6yLf-kkS8X-2">
          <mxGeometry width="100" height="100" relative="1" as="geometry">
            <mxPoint x="550" y="260" as="sourcePoint" />
            <mxPoint x="470" y="140" as="targetPoint" />
          </mxGeometry>
        </mxCell>
      </root>
    </mxGraphModel>
  </diagram>
  <diagram id="2qyopMoyy9mw-NkGebHM" name="Page-2">
    <mxGraphModel dx="692" dy="321" grid="1" gridSize="10" guides="1" tooltips="1" connect="1" arrows="1" fold="1" page="1" pageScale="1" pageWidth="827" pageHeight="1169" background="none" math="0" shadow="1">
      <root>
        <mxCell id="zEQg5zYEzXBbnHIqrJW_-0" />
        <mxCell id="zEQg5zYEzXBbnHIqrJW_-1" parent="zEQg5zYEzXBbnHIqrJW_-0" />
        <mxCell id="zEQg5zYEzXBbnHIqrJW_-2" value="product" style="swimlane;childLayout=stackLayout;horizontal=1;startSize=30;horizontalStack=0;rounded=1;fontSize=14;fontStyle=0;strokeWidth=2;resizeParent=0;resizeLast=1;shadow=0;dashed=0;align=center;fillColor=#ffe6cc;strokeColor=#d79b00;" vertex="1" parent="zEQg5zYEzXBbnHIqrJW_-1">
          <mxGeometry x="180" y="220" width="160" height="160" as="geometry" />
        </mxCell>
        <mxCell id="zEQg5zYEzXBbnHIqrJW_-3" value="# id_product &gt; integer&#xa;* product name  &gt; varchar&#xa;* barcode &gt; varchar&#xa;* length &gt; integer&#xa;* width  &gt; integer&#xa;* heigh t &gt; integer &#xa;* netto &gt; integer&#xa;* price &gt; float" style="align=left;strokeColor=none;fillColor=none;spacingLeft=4;fontSize=12;verticalAlign=top;resizable=0;rotatable=0;part=1;" vertex="1" parent="zEQg5zYEzXBbnHIqrJW_-2">
          <mxGeometry y="30" width="160" height="130" as="geometry" />
        </mxCell>
        <mxCell id="zEQg5zYEzXBbnHIqrJW_-4" value="product category" style="swimlane;childLayout=stackLayout;horizontal=1;startSize=30;horizontalStack=0;rounded=1;fontSize=14;fontStyle=0;strokeWidth=2;resizeParent=0;resizeLast=1;shadow=0;dashed=0;align=center;fillColor=#f8cecc;strokeColor=#b85450;" vertex="1" parent="zEQg5zYEzXBbnHIqrJW_-1">
          <mxGeometry x="480" y="240" width="240" height="130" as="geometry" />
        </mxCell>
        <mxCell id="zEQg5zYEzXBbnHIqrJW_-5" value="#  product category &gt; integer&#xa;*  product category name &gt; varchar" style="align=left;strokeColor=none;fillColor=none;spacingLeft=4;fontSize=12;verticalAlign=top;resizable=0;rotatable=0;part=1;" vertex="1" parent="zEQg5zYEzXBbnHIqrJW_-4">
          <mxGeometry y="30" width="240" height="100" as="geometry" />
        </mxCell>
        <mxCell id="zEQg5zYEzXBbnHIqrJW_-34" value="" style="edgeStyle=entityRelationEdgeStyle;fontSize=12;html=1;endArrow=ERoneToMany;startArrow=ERzeroToOne;strokeWidth=1;curved=1;elbow=vertical;" edge="1" parent="zEQg5zYEzXBbnHIqrJW_-1" target="zEQg5zYEzXBbnHIqrJW_-3">
          <mxGeometry width="100" height="100" relative="1" as="geometry">
            <mxPoint x="480" y="315" as="sourcePoint" />
            <mxPoint x="370" y="280" as="targetPoint" />
          </mxGeometry>
        </mxCell>
        <mxCell id="rctSxfcGG-YjM1YKIK81-5" value="relationship_1" style="edgeLabel;html=1;align=center;verticalAlign=middle;resizable=0;points=[];fontSize=11;fontFamily=Helvetica;fontColor=default;" vertex="1" connectable="0" parent="zEQg5zYEzXBbnHIqrJW_-34">
          <mxGeometry x="0.334" y="1" relative="1" as="geometry">
            <mxPoint as="offset" />
          </mxGeometry>
        </mxCell>
        <mxCell id="rctSxfcGG-YjM1YKIK81-3" value="" style="endArrow=none;html=1;rounded=0;dashed=1;strokeWidth=1;curved=1;elbow=vertical;entryX=0;entryY=0.5;entryDx=0;entryDy=0;" edge="1" parent="zEQg5zYEzXBbnHIqrJW_-1" target="zEQg5zYEzXBbnHIqrJW_-5">
          <mxGeometry relative="1" as="geometry">
            <mxPoint x="410" y="320" as="sourcePoint" />
            <mxPoint x="520" y="330" as="targetPoint" />
            <Array as="points" />
          </mxGeometry>
        </mxCell>
        <mxCell id="rctSxfcGG-YjM1YKIK81-4" value="N" style="resizable=0;html=1;align=right;verticalAlign=bottom;" connectable="0" vertex="1" parent="rctSxfcGG-YjM1YKIK81-3">
          <mxGeometry x="1" relative="1" as="geometry" />
        </mxCell>
        <mxCell id="rctSxfcGG-YjM1YKIK81-10" value="product" style="swimlane;childLayout=stackLayout;horizontal=1;startSize=30;horizontalStack=0;rounded=1;fontSize=14;fontStyle=0;strokeWidth=2;resizeParent=0;resizeLast=1;shadow=0;dashed=0;align=center;fillColor=#ffe6cc;strokeColor=#d79b00;" vertex="1" parent="zEQg5zYEzXBbnHIqrJW_-1">
          <mxGeometry x="90" y="530" width="200" height="160" as="geometry" />
        </mxCell>
        <mxCell id="rctSxfcGG-YjM1YKIK81-11" value="# id_product &gt; integer           &lt;pk&gt;&#xa;* product name  &gt; varchar     &lt;fk&gt;&#xa;* barcode &gt; varchar&#xa;* length &gt; integer&#xa;* width  &gt; integer&#xa;* heigh t &gt; integer &#xa;* netto &gt; integer&#xa;* price &gt; float" style="align=left;strokeColor=none;fillColor=none;spacingLeft=4;fontSize=12;verticalAlign=top;resizable=0;rotatable=0;part=1;" vertex="1" parent="rctSxfcGG-YjM1YKIK81-10">
          <mxGeometry y="30" width="200" height="130" as="geometry" />
        </mxCell>
        <mxCell id="rctSxfcGG-YjM1YKIK81-12" value="product category" style="swimlane;childLayout=stackLayout;horizontal=1;startSize=30;horizontalStack=0;rounded=1;fontSize=14;fontStyle=0;strokeWidth=2;resizeParent=0;resizeLast=1;shadow=0;dashed=0;align=center;fillColor=#f8cecc;strokeColor=#b85450;" vertex="1" parent="zEQg5zYEzXBbnHIqrJW_-1">
          <mxGeometry x="510" y="530" width="240" height="130" as="geometry" />
        </mxCell>
        <mxCell id="rctSxfcGG-YjM1YKIK81-13" value="#  product category &gt; integer             &lt;pk&gt;&#xa;*  product category name &gt; varchar" style="align=left;strokeColor=none;fillColor=none;spacingLeft=4;fontSize=12;verticalAlign=top;resizable=0;rotatable=0;part=1;" vertex="1" parent="rctSxfcGG-YjM1YKIK81-12">
          <mxGeometry y="30" width="240" height="100" as="geometry" />
        </mxCell>
        <mxCell id="rctSxfcGG-YjM1YKIK81-14" value="" style="endArrow=open;endFill=1;endSize=12;html=1;rounded=0;labelBackgroundColor=default;fontFamily=Helvetica;fontSize=11;fontColor=default;strokeColor=default;strokeWidth=1;shape=connector;elbow=vertical;exitX=1;exitY=0.5;exitDx=0;exitDy=0;edgeStyle=orthogonalEdgeStyle;" edge="1" parent="zEQg5zYEzXBbnHIqrJW_-1" source="rctSxfcGG-YjM1YKIK81-10">
          <mxGeometry width="160" relative="1" as="geometry">
            <mxPoint x="340" y="610" as="sourcePoint" />
            <mxPoint x="510" y="630" as="targetPoint" />
          </mxGeometry>
        </mxCell>
        <mxCell id="rctSxfcGG-YjM1YKIK81-15" style="edgeStyle=none;shape=connector;curved=1;rounded=0;orthogonalLoop=1;jettySize=auto;html=1;labelBackgroundColor=default;fontFamily=Helvetica;fontSize=11;fontColor=default;endArrow=none;strokeColor=default;strokeWidth=1;elbow=vertical;" edge="1" parent="zEQg5zYEzXBbnHIqrJW_-1" source="rctSxfcGG-YjM1YKIK81-13">
          <mxGeometry relative="1" as="geometry">
            <mxPoint x="500" y="630" as="targetPoint" />
          </mxGeometry>
        </mxCell>
        <mxCell id="rctSxfcGG-YjM1YKIK81-16" value="&lt;font style=&quot;font-size: 8px&quot;&gt;&lt;b&gt;FK_PRODUCT_RELATIONS_CATEGORY&lt;/b&gt;&lt;/font&gt;" style="text;html=1;align=center;verticalAlign=middle;resizable=0;points=[];autosize=1;strokeColor=none;fillColor=none;fontSize=11;fontFamily=Helvetica;fontColor=default;" vertex="1" parent="zEQg5zYEzXBbnHIqrJW_-1">
          <mxGeometry x="315" y="560" width="170" height="20" as="geometry" />
        </mxCell>
      </root>
    </mxGraphModel>
  </diagram>
</mxfile>
